<svg xmlns="http://www.w3.org/2000/svg" viewBox="0 0 1080 1080" width="1080" height="1080">
  <circle cx="541.5" cy="538" r="288" fill="#191919"></circle>
  <path d="M535,434L572,435L572,436L582,437L582,438L590,439L590,440L812,440L812,443L814,445L814,448L591,448L591,449L586,449L586,450L574,452L574,453L508,454L508,453L504,453L501,450L501,445L503,442L517,438L517,437L521,437L521,436L535,435Z" fill="#FF5C4D"></path>
  <path d="M478,458L612,458L612,459L619,459L619,460L624,460L624,461L638,463L638,464L819,464L820,469L821,469L821,471L637,471L637,472L631,472L628,474L612,476L612,477L478,477L474,475L471,470L471,465L473,461L478,459Z" fill="#FF9F1C"></path>
  <path d="M458,482L637,482L637,483L648,484L648,485L655,486L655,487L824,487L825,494L826,494L826,495L657,495L657,496L653,496L649,498L644,498L640,500L632,500L632,501L460,501L460,500L456,500L452,496L452,487L456,483L458,483Z" fill="#FFD23F"></path>
  <path d="M451,505L644,505L644,506L662,508L662,509L670,510L670,511L828,511L828,519L670,519L670,520L665,520L665,521L661,521L657,523L642,524L642,525L458,525L458,524L446,524L442,520L442,517L441,517L442,510L447,506L451,506Z" fill="#FFD23F"></path>
  <path d="M443,529L647,529L647,530L658,531L658,532L671,534L671,535L829,535L829,543L668,543L668,544L651,547L651,548L442,548L436,543L436,535L440,530L443,530Z" fill="#2EC4B6"></path>
  <path d="M448,553L648,553L648,554L655,554L655,555L664,556L664,557L673,558L673,559L828,559L828,566L673,566L673,567L667,567L664,569L648,571L648,572L448,572L444,570L441,565L441,560L443,556L448,554Z" fill="#3A86FF"></path>
  <path d="M458,577L636,577L636,578L648,579L648,580L655,581L655,582L826,582L824,590L658,590L658,591L653,591L653,592L640,594L640,595L632,595L632,596L460,596L460,595L455,594L452,590L452,582L456,578L458,578Z" fill="#8338EC"></path>
  <path d="M476,601L616,601L616,602L626,603L626,604L633,605L633,606L821,606L819,614L634,614L634,615L616,618L616,619L477,619L472,615L472,612L471,612L472,605L476,602Z" fill="#8338EC"></path>
  <path d="M505,624L571,624L571,625L576,625L576,626L581,626L584,628L596,629L596,630L814,630L812,637L592,637L592,638L587,638L584,640L568,642L568,643L544,644L544,643L524,642L524,641L506,637L501,633L501,628L503,625L505,625Z" fill="#FF4D8D"></path>
</svg>