<svg xmlns="http://www.w3.org/2000/svg" viewBox="0 0 1080 1080" width="1080" height="1080">
  <defs>
    <clipPath id="disc"><circle cx="541.5" cy="538" r="288"></circle></clipPath>
  </defs>
  <circle cx="541.5" cy="538" r="288" fill="#191919"></circle>
  <g clip-path="url(#disc)">
    <path d="M 527 433.62 L 559 433.62 C 572.95 433.62 576.05 439.62 590 439.62 L 815.6 439.62 L 815.6 447.62 L 590 447.62 C 576.05 447.62 572.95 453.62 559 453.62 L 527 453.62 A 26 10 0 0 1 527 433.62 Z" fill="#FF5C4D"></path>
    <path d="M 480.5 457.5 L 611 457.5 C 622.7 457.5 625.3 463.5 637 463.5 L 822.61 463.5 L 822.61 470.5 L 637 470.5 C 625.3 470.5 622.7 476.5 611 476.5 L 480.5 476.5 A 9.5 9.5 0 0 1 480.5 457.5 Z" fill="#FF9F1C"></path>
    <path d="M 461.5 481.48 L 636 481.48 C 644.55 481.48 646.45 486.98 655 486.98 L 827.64 486.98 L 827.64 494.98 L 655 494.98 C 646.45 494.98 644.55 500.48 636 500.48 L 461.5 500.48 A 9.5 9.5 0 0 1 461.5 481.48 Z" fill="#FFD23F"></path>
    <path d="M 451 504.48 L 643 504.48 C 655.15 504.48 657.85 510.48 670 510.48 L 830.54 510.48 L 830.54 518.48 L 670 518.48 C 657.85 518.48 655.15 524.48 643 524.48 L 451 524.48 A 10 10 0 0 1 451 504.48 Z" fill="#FFD23F"></path>
    <path d="M 445.5 528.51 L 650 528.51 C 658.1 528.51 659.9 534.01 668 534.01 L 831.5 534.01 L 831.5 542.01 L 668 542.01 C 659.9 542.01 658.1 547.51 650 547.51 L 445.5 547.51 A 9.5 9.5 0 0 1 445.5 528.51 Z" fill="#2EC4B6"></path>
    <path d="M 450.5 552.5 L 647 552.5 C 658.7 552.5 661.3 558.5 673 558.5 L 830.5 558.5 L 830.5 565.5 L 673 565.5 C 661.3 565.5 658.7 571.5 647 571.5 L 450.5 571.5 A 9.5 9.5 0 0 1 450.5 552.5 Z" fill="#3A86FF"></path>
    <path d="M 461.5 576.48 L 635 576.48 C 644 576.48 646 581.98 655 581.98 L 827.47 581.98 L 827.47 589.98 L 655 589.98 C 646 589.98 644 595.48 635 595.48 L 461.5 595.48 A 9.5 9.5 0 0 1 461.5 576.48 Z" fill="#8338EC"></path>
    <path d="M 480 600.5 L 615 600.5 C 623.1 600.5 624.9 605.5 633 605.5 L 822.48 605.5 L 822.48 613.5 L 633 613.5 C 624.9 613.5 623.1 618.5 615 618.5 L 480 618.5 A 9 9 0 0 1 480 600.5 Z" fill="#8338EC"></path>
    <path d="M 530 623.12 L 567 623.12 C 578.25 623.12 580.75 629.62 592 629.62 L 815.34 629.62 L 815.34 636.62 L 592 636.62 C 580.75 636.62 578.25 643.12 567 643.12 L 530 643.12 A 29 10 0 0 1 530 623.12 Z" fill="#FF4D8D"></path>
  </g>
</svg>